# xmcd
#
# Track frame offsets:
#	150
#	18752
#	34505
#	48500
#	66297
#	80537
#	94385
#	111027
#	126702
#	143205
#	155677
#	171642
#
# Disc length: 2494 seconds
#
# Revision: 2
# Processed by: cddbd v1.5.2PL0 Copyright (c) Steve Scherf et al.
# Submitted via: audiograbber 1.83.01
#
DISCID=ab09bc0c
DTITLE=Various Artist - Australia's Favourite Line Dances Volume 5
DYEAR=1997
DGENRE=Country
TTITLE0=Wynonna Judd - Dance, Shout
TTITLE1=Scooter Lee - He's My Little Jalapeño
TTITLE2=Ricky Van Shelton - If They Turned Out The Lights
TTITLE3=Rodney Crowell - What Kind Of Love
TTITLE4=Ray Kennedy - No Way Jose
TTITLE5=Vince Gill - What The Cowgirls Do
TTITLE6=Carlene Carter - I Fell In Love
TTITLE7=Sawyer Brown - (This Thing Called) Wantin' And Havin' It All
TTITLE8=Lucky Oceans and Dude Ranch - Louisiana Girl
TTITLE9=Jeff Carson - Definite Possibilities
TTITLE10=Wayne Law - Small Town Dreamer
TTITLE11=The Groovegrass Boyz - Country Macarena
EXTD=
EXTT0=
EXTT1=
EXTT2=
EXTT3=
EXTT4=
EXTT5=
EXTT6=
EXTT7=
EXTT8=
EXTT9=
EXTT10=
EXTT11=
PLAYORDER=
